HIERARCHY
ROOT Hips
{
  OFFSET 57.8838 95.319 338.509
  CHANNELS 6 Xposition Yposition Zposition Zrotation Xrotation Yrotation
  JOINT LeftUpLeg
  {
    OFFSET 8.64259 1.95398 -2.38835
    CHANNELS 3 Zrotation Xrotation Yrotation
    JOINT LeftLeg
    {
      OFFSET 43.7702 0 0
      CHANNELS 3 Zrotation Xrotation Yrotation
      JOINT LeftFoot
      {
        OFFSET 40.6238 0 0
        CHANNELS 3 Zrotation Xrotation Yrotation
        JOINT LeftToeBase
        {
          OFFSET 12.7242 0 0
          CHANNELS 3 Zrotation Xrotation Yrotation
          End Site
          {
            OFFSET 0 0 0
          }
        }
      }
    }
  }
  JOINT RightUpLeg
  {
    OFFSET -8.2249 1.95398 -2.59336
    CHANNELS 3 Zrotation Xrotation Yrotation
    JOINT RightLeg
    {
      OFFSET 43.5653 0 0
      CHANNELS 3 Zrotation Xrotation Yrotation
      JOINT RightFoot
      {
        OFFSET 40.6238 0 0
        CHANNELS 3 Zrotation Xrotation Yrotation
        JOINT RightToeBase
        {
          OFFSET 12.7242 0 0
          CHANNELS 3 Zrotation Xrotation Yrotation
          End Site
          {
            OFFSET 0 0 0
          }
        }
      }
    }
  }
  JOINT Spine
  {
    OFFSET 0.165834 0.87714 6.61349
    CHANNELS 3 Zrotation Xrotation Yrotation
    JOINT Spine1
    {
      OFFSET 7.38963 1.71661e-005 0
      CHANNELS 3 Zrotation Xrotation Yrotation
      JOINT Spine2
      {
        OFFSET 11.9445 1.14441e-005 0
        CHANNELS 3 Zrotation Xrotation Yrotation
        JOINT Spine3
        {
          OFFSET 14.7254 4.19617e-005 0
          CHANNELS 3 Zrotation Xrotation Yrotation
          JOINT Spine4
          {
            OFFSET 10.9679 0 0
            CHANNELS 3 Zrotation Xrotation Yrotation
            JOINT RightShoulder
            {
              OFFSET 2.46616 -1.6653 3.69651
              CHANNELS 3 Zrotation Xrotation Yrotation
              JOINT RightArm
              {
                OFFSET 13.0012 0 0
                CHANNELS 3 Zrotation Xrotation Yrotation
                JOINT RightForeArm
                {
                  OFFSET 28.7848 1.62311e-005 0
                  CHANNELS 3 Zrotation Xrotation Yrotation
                  JOINT RightHand
                  {
                    OFFSET 26.5688 1.62095e-005 0
                    CHANNELS 3 Zrotation Xrotation Yrotation
                    End Site
                    {
                      OFFSET 0 0 0
                    }
                  }
                }
              }
            }
            JOINT LeftShoulder
            {
              OFFSET 2.38034 -1.29275 -3.7523
              CHANNELS 3 Zrotation Xrotation Yrotation
              JOINT LeftArm
              {
                OFFSET 16.3182 6.07031e-005 0
                CHANNELS 3 Zrotation Xrotation Yrotation
                JOINT LeftForeArm
                {
                  OFFSET 27.0901 0 0
                  CHANNELS 3 Zrotation Xrotation Yrotation
                  JOINT LeftHand
                  {
                    OFFSET 24.5451 1.51738e-005 0
                    CHANNELS 3 Zrotation Xrotation Yrotation
                    End Site
                    {
                      OFFSET 0 0 0
                    }
                  }
                }
              }
            }
            JOINT Neck
            {
              OFFSET 5.0226 -0.0266342 0
              CHANNELS 3 Zrotation Xrotation Yrotation
              JOINT Head
              {
                OFFSET 6.69364 2.86102e-005 0
                CHANNELS 3 Zrotation Xrotation Yrotation
                End Site
                {
                  OFFSET 0 0 0
                }
              }
            }
          }
        }
      }
    }
  }
}
MOTION
Frames:	12
Frame Time:	0.0416667
2.25833 96.9432 -15.6349 111.606 -81.549 110.215 -177.219 -0.175813 88.8314 -14.0082 3.93601 1.58861 65.4636 4.57107 -1.79959 33.9027 2.05614 2.21194 172.697 -1.23147 92.0641 -14.2548 -3.61693 0.0769826 66.6667 -8.64029 -0.281195 31.3598 -3.41837 0.612648 -0.326726 7.04137 -90.7866 12.7826 -1.02512 -1.45023 1.11129 -1.08795 -1.40373 -21.4185 -0.541946 -1.69122 -1.40589 -0.541945 -1.69122 96.7167 -51.3786 -90.3153 26.4762 -11.5528 -10.0611 3.47363 -8.041 -12.8245 -13.1189 -0.823206 2.16276 -80.0823 -54.8236 93.8854 -39.3845 -24.3815 -20.8313 3.39036 64.1027 0.0151166 0.903264 -0.154794 -13.6649 12.6701 -2.21043 4.01516 -12.9073 -2.76425 -4.22041 
2.48528 96.9574 -15.6438 112.058 -80.9296 110.286 -177.24 -0.515087 88.5002 -13.8911 4.577 1.3924 65.3095 4.65825 -1.66406 33.9351 2.06767 2.47151 172.459 -1.25402 91.617 -14.7175 -3.36607 0.00510921 66.6454 -8.44836 -0.536831 31.6014 -3.73672 0.58155 -0.363349 7.02108 -90.9858 12.8189 -1.19348 -1.82822 1.14732 -1.27276 -1.77395 -21.379 -0.588987 -2.10226 -1.36631 -0.588978 -2.10227 96.7825 -51.469 -90.2055 25.3934 -11.5066 -10.0506 3.67007 -7.48778 -12.9897 -14.3111 -0.913273 2.27901 -80.3346 -54.8176 93.5229 -39.8402 -24.2975 -20.3399 3.49515 63.3208 0.0147046 1.46711 -0.223751 -14.2762 13.4162 -2.03835 4.28754 -13.6718 -2.65642 -4.28117 
2.53728 96.949 -15.6831 110.414 -80.2847 108.113 -177.499 -0.655509 88.025 -13.3855 4.87064 1.29912 64.9997 4.60556 -1.62338 34.0268 2.11096 1.95567 172.183 -1.14691 91.0759 -14.8766 -3.28979 0.00997536 66.8107 -8.58032 -0.727734 31.6287 -3.77335 0.559927 -0.400509 6.95899 -91.1795 12.9378 -1.36093 -2.19331 1.2658 -1.45613 -2.13133 -21.2562 -0.63908 -2.50074 -1.24356 -0.63908 -2.50075 96.7034 -51.5885 -90.3137 24.3179 -10.8381 -10.3438 3.9219 -7.62574 -12.3454 -15.0781 -0.923235 1.96438 -80.5813 -54.5138 93.154 -40.6874 -24.3473 -20.2176 3.70727 63.6077 0.0148528 1.4573 -0.198164 -13.6856 13.4168 -1.97132 3.75255 -13.3314 -2.52761 -3.65996 
2.40793 96.9752 -15.73 110.841 -79.7493 108.022 -177.805 -0.862769 87.5582 -13.294 4.54287 1.38848 64.9699 4.68061 -2.0746 33.5886 1.92867 1.66075 171.862 -1.13462 90.6271 -15.3351 -2.51075 -0.0372052 67.4212 -8.65005 -0.0120828 31.457 -3.54857 0.512243 -0.346939 6.992 -91.3868 12.8672 -1.35324 -2.60996 1.19443 -1.46676 -2.54793 -21.3209 -0.506654 -2.89575 -1.30826 -0.506656 -2.89576 97.3623 -51.1809 -89.3483 23.4814 -10.3155 -11.2563 4.23306 -7.299 -11.7914 -15.1854 -0.936924 2.01712 -81.0006 -55.3917 92.5987 -41.0302 -24.3607 -21.4186 4.10329 65.2633 0.015778 1.65929 -0.208427 -13.816 14.3476 -2.40843 4.22451 -13.8908 -2.99859 -4.54363 
2.26181 96.9395 -15.7007 111.136 -79.3421 107.705 -178.25 -1.37892 86.9832 -12.5145 4.3329 1.47956 64.425 4.98269 -2.24566 34.0999 2.14095 2.11198 171.494 -0.569463 90.0392 -16.6907 -2.1682 0.0140297 68.0648 -8.13993 0.301639 31.4897 -3.58364 0.822166 -0.404437 6.97902 -91.5178 12.8883 -1.5304 -2.85048 1.21525 -1.65433 -2.78044 -21.2965 -0.603459 -3.17831 -1.28387 -0.603465 -3.17833 97.2118 -51.0792 -89.5883 22.8558 -10.5168 -11.3004 4.53917 -6.33381 -11.7042 -16.2453 -0.961715 1.70457 -80.737 -55.2111 92.9654 -41.0304 -23.8859 -21.0629 3.65982 64.6268 0.0154075 1.14099 -0.162781 -13.4046 15.0168 -2.42432 3.62215 -14.5945 -2.89993 -4.06487 
2.00495 96.8988 -15.6297 114.245 -79.0796 110.479 -178.252 -1.86101 86.8354 -12.8281 4.28622 1.53741 64.2504 5.26452 -2.32143 34.5761 2.34363 2.24707 171.171 -1.00784 89.7479 -17.2992 -2.34852 0.106036 68.5721 -8.4124 0.399228 31.3795 -3.44377 0.633873 -0.418825 6.95298 -91.695 12.9342 -1.64446 -3.19026 1.26053 -1.78321 -3.1149 -21.245 -0.610322 -3.53655 -1.23232 -0.610316 -3.53656 97.3816 -50.571 -89.3754 22.7047 -10.6199 -10.6552 4.64519 -6.16527 -11.7765 -16.8188 -1.12377 2.6054 -81.0034 -55.0726 92.5773 -41.1849 -23.8208 -19.9752 3.40969 64.3216 0.0152366 0.917466 -0.160366 -13.5862 14.0835 -2.41994 3.82888 -13.7022 -2.9407 -4.18542 
1.68116 96.8166 -15.5682 114.792 -78.9041 110.571 -178.286 -1.87725 86.6602 -13.1071 4.16896 1.44939 64.1747 5.51471 -2.52908 35.2788 2.64647 2.66116 171.019 -1.07744 89.4789 -17.7319 -2.26222 0.0535521 69.3117 -9.0856 0.839413 31.0891 -3.06659 0.350501 -0.471431 6.87753 -91.8388 13.0785 -1.81988 -3.45453 1.40447 -1.97008 -3.37122 -21.0961 -0.6984 -3.84119 -1.08347 -0.698401 -3.8412 97.6014 -50.9333 -89.0047 21.5323 -10.5671 -10.1543 4.65945 -5.7227 -12.0518 -17.195 -1.13446 2.49868 -81.1981 -54.3177 92.2547 -42.4078 -23.9054 -19.1392 3.65982 65.1689 0.0157218 0.118187 -0.108085 -13.914 13.8695 -2.40375 3.06236 -14.2166 -2.80061 -3.25855 
1.26885 96.7586 -15.4428 115.733 -78.4663 111.337 -178.474 -1.80594 86.6423 -13.869 3.73486 1.67142 64.0533 5.99331 -2.78518 36.4055 3.13439 2.76503 171.008 -1.0143 89.5828 -18.6402 -2.09556 0.0366015 69.5753 -8.63747 0.603975 31.2074 -3.21674 0.67794 -0.533831 6.86487 -91.9955 13.0963 -2.01938 -3.74351 1.42174 -2.18208 -3.65117 -21.0731 -0.80207 -4.17658 -1.06046 -0.802068 -4.17658 97.9531 -50.569 -88.4944 20.9499 -10.075 -9.8757 4.50628 -5.83656 -12.5463 -17.2595 -1.24063 3.1913 -81.3614 -53.7961 91.987 -43.4721 -23.3876 -19.2361 3.76539 65.3501 0.0158301 -0.385927 -0.0691272 -14.1133 14.1249 -2.51687 2.5223 -14.32 -2.74258 -3.5284 
0.934218 96.5741 -15.2682 118.133 -78.8857 113.809 -178.616 -1.54846 86.6964 -15.0194 2.55882 1.89078 64.1165 6.57493 -2.74698 37.5683 3.6481 3.12587 170.986 -0.789937 89.7417 -19.7787 -2.26299 0.0726857 70.3338 -9.20246 1.0317 31.0389 -2.99803 0.511066 -0.562369 6.83846 -92.1269 13.1427 -2.14001 -3.99082 1.46766 -2.31344 -3.89297 -21.0216 -0.843033 -4.44854 -1.00896 -0.843024 -4.44856 97.8503 -51.2594 -88.5948 18.8733 -9.85664 -9.6868 4.86148 -4.53869 -12.4671 -17.5547 -1.225 2.94138 -81.0698 -53.5854 92.398 -43.3975 -22.9558 -19.2712 3.33187 66.0964 0.016294 0.113307 -0.128338 -14.5106 14.2103 -2.60019 0.735331 -14.5816 -2.49544 -2.1649 
0.547602 96.3923 -15.0187 121.865 -79.4185 117.61 -178.33 -1.64491 87.0043 -15.9128 2.21011 1.78725 64.1572 7.38095 -2.29288 38.879 4.25502 3.94594 170.89 -0.873297 89.9224 -20.7366 -2.50483 0.135602 71.1423 -9.62797 1.55331 30.9663 -2.9051 0.307805 -0.590262 6.77138 -92.1805 13.2734 -2.22321 -4.08535 1.59828 -2.40072 -3.98376 -20.889 -0.894086 -4.56362 -0.876357 -0.89408 -4.56363 97.7232 -51.5647 -88.7627 18.1727 -8.77587 -9.25853 5.13756 -3.82058 -11.9107 -17.4537 -1.22434 2.98683 -81.12 -52.7095 92.2738 -43.923 -23.0407 -18.8144 3.60191 66.6143 0.0166339 -0.055386 -0.134529 -15.0415 13.4526 -2.58247 -0.306561 -14.7261 -2.21852 -2.09174 
0.246594 96.1522 -14.8483 119.6 -78.7523 116.141 -178.696 -0.282792 87.6482 -18.4337 2.35244 2.26136 64.5271 8.16629 -1.91402 40.4275 5.0152 5.12719 170.887 -0.923981 90.7649 -21.2049 -1.69006 0.547765 71.5305 -9.72301 1.64067 31.2617 -3.30628 -0.217903 -0.756025 6.64365 -92.2768 13.5205 -2.60271 -4.22476 1.84565 -2.78597 -4.10636 -20.6406 -1.21436 -4.81033 -0.627966 -1.21436 -4.81033 97.6536 -51.8331 -88.846 17.4591 -8.03894 -8.87194 5.36142 -3.02695 -11.514 -17.355 -1.25051 3.21064 -81.0625 -52.2786 92.3327 -44.6165 -23.2437 -19.0151 3.50947 66.2355 0.0163838 -0.664836 -0.0551999 -12.6898 13.4499 -2.68735 -1.98716 -14.9502 -2.03014 -0.774457 
-0.461041 96.0615 -14.4395 133.51 -80.6876 130.114 -177.365 -1.89661 88.1656 -18.3156 0.81628 1.8615 64.9634 8.94028 -1.71277 40.4552 5.09193 6.21108 171.213 -1.49383 91.0173 -22.0905 -3.66317 0.257212 71.651 -10.3651 1.40328 31.5185 -3.63288 0.389532 -0.639125 6.63179 -92.214 13.5502 -2.34101 -4.13249 1.87509 -2.52047 -4.02567 -20.6117 -0.992344 -4.64388 -0.599058 -0.992334 -4.6439 96.9014 -52.421 -89.9292 16.9222 -7.88546 -8.08582 5.7744 -2.40676 -10.4119 -17.7217 -1.16543 2.46723 -81.0248 -51.7937 92.36 -44.4389 -23.5948 -17.9443 3.18355 66.5294 0.0165771 -0.698937 -0.0447891 -12.3702 11.1204 -2.37345 -3.35757 -13.4903 -1.51425 -0.188314 
